<?xml version="1.0" standalone="no"?>
<!DOCTYPE svg PUBLIC "-//W3C//DTD SVG 20010904//EN"
 "http://www.w3.org/TR/2001/REC-SVG-20010904/DTD/svg10.dtd">
<svg version="1.0" xmlns="http://www.w3.org/2000/svg"
 width="638.000000pt" height="638.000000pt" viewBox="0 0 638.000000 638.000000"
 preserveAspectRatio="xMidYMid meet">

<g transform="translate(0.000000,638.000000) scale(0.100000,-0.100000)"
fill="#000000" stroke="none">
<path d="M0 6021 l0 -359 43 -7 c119 -18 168 -17 190 3 24 22 61 36 92 37 11
0 24 10 30 23 5 12 14 22 18 22 5 0 31 23 59 50 59 59 89 65 108 21 19 -48 -2
-94 -64 -141 -29 -21 -60 -45 -68 -53 -8 -8 -41 -32 -74 -52 -74 -47 -170
-138 -195 -187 -34 -66 -48 -171 -43 -329 3 -79 6 -204 8 -277 l3 -134 -35
-16 c-33 -16 -35 -16 -53 7 -19 23 -19 -17 -19 -2303 l0 -2326 2531 0 c2217 0
2530 2 2519 15 -7 8 -9 26 -6 42 6 24 2 32 -22 50 -22 16 -28 30 -30 61 -2 22
2 43 8 47 6 4 4 12 -6 22 -10 10 -14 27 -11 46 2 18 -1 31 -10 34 -7 3 -13 12
-13 21 0 8 -6 23 -13 31 -16 19 -47 115 -47 146 0 13 -7 25 -18 27 -21 6 -94
141 -86 161 3 8 -6 21 -20 31 -19 12 -26 25 -26 47 0 16 -7 44 -16 60 -8 17
-14 48 -13 69 2 22 0 42 -4 46 -4 4 -4 18 -1 30 4 16 2 24 -7 24 -10 0 -10 3
-1 12 7 7 12 27 12 44 0 18 4 35 9 39 5 3 12 19 16 36 7 32 -15 69 -42 69 -10
0 -12 13 -7 58 3 31 9 68 13 82 5 14 5 52 0 85 -5 37 -4 61 1 63 6 2 10 8 10
14 0 6 -7 8 -15 5 -21 -9 -28 9 -13 33 11 17 11 22 -2 30 -11 7 -15 27 -15 70
0 54 -2 59 -19 54 -17 -6 -18 -2 -13 42 3 29 12 53 22 60 16 12 16 14 1 29 -9
9 -18 26 -20 38 -2 12 -9 50 -15 85 -7 34 -23 83 -36 109 -14 25 -25 53 -25
62 0 13 -2 13 -9 2 -6 -9 -16 3 -35 45 -15 33 -31 67 -36 76 -6 10 -10 23 -10
30 0 6 -6 19 -14 27 -20 22 -36 151 -22 173 8 13 8 23 -2 38 -7 12 -8 20 -2
20 22 0 -3 136 -29 160 -12 11 -31 51 -31 65 0 9 -9 33 -20 55 -11 22 -20 50
-20 62 0 13 -9 34 -20 48 -11 14 -20 39 -20 55 -1 17 -7 46 -14 65 -8 19 -23
59 -33 88 -11 29 -30 63 -43 77 -20 22 -23 33 -21 109 2 82 -4 110 -32 138
-29 30 -76 128 -82 173 -6 35 -16 57 -39 79 -39 39 -96 145 -96 179 0 14 -4
28 -9 31 -4 3 -11 25 -15 48 -4 25 -18 54 -33 70 -25 27 -28 55 -8 100 6 14
-2 22 -40 38 -62 27 -80 25 -150 -10 -33 -16 -63 -30 -66 -30 -4 0 -28 -9 -54
-21 -48 -21 -155 -34 -155 -19 0 13 -32 17 -57 8 -19 -6 -23 -4 -23 12 0 26
-26 26 -40 1 -9 -17 -20 -19 -92 -17 -118 4 -283 64 -309 112 -6 12 -29 27
-50 34 -27 9 -39 19 -39 32 0 10 -7 18 -17 18 -17 1 -17 1 0 14 18 14 24 56 7
56 -5 0 -10 -9 -10 -20 0 -19 -19 -27 -33 -14 -10 10 17 44 35 44 12 0 18 8
18 24 0 14 4 28 10 31 15 9 12 25 -5 25 -25 0 -58 36 -49 52 5 7 7 37 5 66 -3
49 -1 53 16 48 13 -4 22 2 32 24 11 27 11 34 -8 66 -12 20 -23 46 -25 57 -2
16 -10 21 -25 20 -17 -2 -21 3 -22 30 0 26 -2 29 -9 12 -8 -20 -8 -20 -16 0
-11 28 -36 55 -51 55 -7 0 -13 7 -13 15 0 19 -76 21 -83 3 -2 -8 -8 -9 -13 -4
-5 5 -4 11 4 13 6 3 12 17 12 33 0 24 -9 33 -55 60 -30 17 -55 37 -55 45 0 17
33 25 76 18 26 -4 34 -2 34 10 0 14 20 27 40 27 5 0 12 -9 15 -21 4 -12 13
-18 20 -15 8 3 24 -8 37 -24 13 -17 28 -30 34 -30 7 0 14 -7 17 -14 3 -8 23
-18 44 -22 21 -4 43 -10 48 -13 6 -4 27 -13 48 -20 30 -10 41 -10 53 0 11 9
18 9 32 -3 25 -22 75 -36 108 -32 66 10 139 28 145 37 3 5 12 -13 18 -39 18
-69 75 -123 131 -122 32 0 46 -6 66 -27 14 -15 28 -24 32 -21 3 4 6 30 7 58 0
42 3 52 18 54 23 3 39 24 73 91 23 47 25 54 11 68 -9 8 -18 23 -22 34 -3 10
-18 24 -33 31 -25 11 -26 13 -7 20 16 5 10 10 -30 23 -55 17 -142 21 -151 6
-7 -12 -34 -11 -34 1 0 6 8 10 18 11 11 0 12 2 4 6 -7 3 -19 0 -26 -6 -11 -9
-16 3 -25 62 -6 40 -28 108 -47 152 -20 44 -38 89 -42 100 -5 17 -3 18 10 7
13 -10 24 -5 68 35 76 68 159 157 207 221 90 121 123 289 89 446 -23 102 -55
174 -68 155 -8 -11 -9 -10 -4 4 3 10 0 27 -7 38 -11 19 -22 20 -234 18 l-223
-1 -40 -29 c-22 -16 -46 -28 -52 -27 -7 2 -12 -3 -10 -10 2 -9 -4 -12 -17 -7
-11 3 -23 0 -27 -6 -5 -8 -3 -9 6 -4 9 5 11 4 6 -4 -4 -6 -13 -10 -20 -9 -14
3 -97 -65 -211 -174 -38 -36 -88 -81 -110 -99 -40 -33 -59 -53 -263 -284 -59
-66 -117 -131 -130 -145 -13 -14 -31 -37 -40 -52 -9 -16 -20 -28 -23 -28 -11
0 -45 -50 -53 -77 -6 -17 -3 -23 8 -23 11 0 -4 -26 -45 -77 -33 -43 -80 -107
-104 -143 -25 -36 -76 -108 -115 -160 -38 -52 -100 -140 -137 -195 -86 -128
-91 -133 -131 -129 -31 2 -34 0 -29 -22 6 -31 -9 -41 -23 -14 -6 11 -17 20
-25 20 -7 0 -17 5 -21 11 -5 8 1 10 19 7 21 -4 28 0 33 16 4 12 15 27 25 34
46 32 3 38 -113 16 -17 -3 -28 -1 -28 5 0 6 18 11 40 11 39 0 40 1 40 36 0 25
-7 41 -22 54 -21 17 -24 17 -30 2 -4 -12 -8 -3 -13 25 -5 29 -14 44 -27 49
-17 5 -19 12 -13 47 3 23 10 53 15 67 5 14 11 46 15 73 3 26 10 47 16 47 5 0
9 5 9 12 0 9 -3 9 -12 0 -22 -22 -38 -12 -44 29 -4 22 -17 56 -30 75 -13 19
-24 39 -24 44 0 12 -67 30 -85 24 -7 -3 -33 15 -59 40 -25 25 -49 46 -54 46
-4 0 -16 20 -27 45 -11 25 -22 45 -25 45 -9 0 -41 -40 -32 -40 4 0 0 -5 -8
-11 -11 -8 -12 -12 -2 -16 6 -2 12 -16 12 -29 0 -13 4 -24 9 -24 5 0 11 -9 14
-19 3 -11 21 -26 40 -35 44 -18 58 -44 65 -119 5 -61 -3 -77 -39 -77 -20 0
-30 27 -38 95 -6 47 -8 50 -36 53 -16 2 -38 12 -48 23 -10 11 -22 17 -27 14
-6 -4 -7 7 -4 25 17 82 -36 -23 -70 -140 -33 -113 -53 -335 -37 -408 6 -29 11
-74 11 -100 0 -26 9 -73 20 -105 11 -31 20 -81 20 -111 0 -42 5 -61 23 -83 15
-17 24 -42 24 -65 1 -31 12 -50 77 -122 42 -47 76 -91 76 -97 0 -7 3 -10 6 -6
3 3 27 -6 54 -19 26 -13 59 -24 71 -24 13 0 41 -16 61 -35 37 -35 38 -35 31
-95 -8 -85 17 -160 75 -220 l44 -45 -33 -7 c-19 -4 -60 -9 -91 -9 -49 -2 -60
-5 -74 -27 -12 -19 -14 -32 -7 -56 9 -30 6 -35 -71 -114 -67 -68 -85 -82 -104
-77 -16 4 -22 2 -20 -7 1 -7 -3 -28 -11 -45 -12 -30 -18 -33 -55 -33 -38 0
-66 -13 -66 -31 0 -4 14 -12 30 -19 32 -13 40 -41 18 -60 -39 -33 -82 -59 -91
-53 -6 3 0 10 12 15 18 6 22 13 17 31 -3 12 -6 28 -6 35 0 6 -9 12 -20 12 -11
0 -20 -4 -20 -10 0 -14 -43 -13 -74 1 -20 9 -29 9 -41 -1 -14 -12 -18 -11 -26
1 -8 12 -12 11 -27 -7 -13 -16 -26 -20 -54 -16 -30 3 -38 0 -48 -19 -11 -19
-10 -25 6 -38 11 -9 26 -24 33 -35 13 -16 13 -17 -5 -14 -13 2 -20 -3 -22 -19
-3 -18 2 -23 18 -23 24 0 40 -34 40 -85 0 -23 -10 -46 -33 -73 -17 -22 -51
-67 -75 -100 -63 -88 -72 -94 -72 -44 0 23 -5 44 -11 47 -10 7 -8 104 3 135 4
8 9 24 14 35 5 16 9 12 15 -22 9 -47 25 -83 39 -83 4 0 15 -3 23 -6 23 -8 30
28 12 62 -8 16 -15 37 -15 46 0 32 -12 48 -36 48 -21 0 -24 5 -24 34 0 39 18
96 31 96 5 0 9 15 9 33 0 28 -6 36 -37 53 -45 24 -49 40 -63 224 -5 69 -14
148 -20 175 -6 28 -15 100 -20 160 -5 61 -14 144 -20 185 -21 139 -28 298 -15
320 4 6 17 9 29 6 37 -9 82 8 78 30 -2 10 -8 21 -12 24 -4 3 -15 26 -23 51 -9
26 -27 59 -40 73 -24 25 -25 33 -32 234 -15 451 -15 502 6 515 11 7 19 19 19
27 0 22 90 105 123 114 34 8 212 167 233 208 22 42 21 88 -2 105 -10 7 -23 12
-30 9 -26 -10 -32 14 -35 134 l-4 125 25 0 c14 0 27 3 30 7 11 14 -8 177 -25
209 -10 21 -16 56 -16 91 0 41 -4 58 -14 62 -8 3 -15 12 -15 21 0 13 -32 15
-251 15 l-250 0 6 -22 c4 -13 20 -49 35 -80 20 -40 24 -58 15 -61 -21 -9 -33
7 -70 86 -30 66 -39 77 -60 77 l-25 0 0 -359z m2840 246 c0 -2 -9 -12 -20 -22
-24 -21 -27 -14 -4 9 15 15 24 20 24 13z m-2665 -67 c3 -5 1 -10 -4 -10 -6 0
-11 5 -11 10 0 6 2 10 4 10 3 0 8 -4 11 -10z m2560 -246 c15 -6 52 -64 40 -64
-3 0 -17 7 -31 16 -14 10 -47 17 -77 18 -75 1 -113 -23 -275 -171 -20 -18 -38
-31 -41 -28 -2 3 36 46 85 95 78 79 128 116 184 134 22 7 96 7 115 0z m-2415
-67 c0 -7 7 -24 14 -39 15 -28 19 -50 17 -78 -1 -12 -3 -12 -15 0 -28 31 -51
151 -26 135 6 -3 10 -12 10 -18z m2650 -237 c8 -15 7 -18 -2 -15 -18 6 -45
-16 -49 -40 -6 -30 -33 -24 -37 8 -2 19 1 27 12 27 9 0 16 5 16 10 0 6 9 10
20 10 11 0 20 5 20 10 0 16 8 12 20 -10z m24 -235 c7 -18 6 -18 -4 -2 -13 20
-36 23 -43 5 -4 -10 -8 -9 -16 2 -16 23 -13 33 8 27 18 -4 19 0 16 42 l-3 46
18 -50 c9 -27 20 -59 24 -70z m206 64 c0 -6 -4 -7 -10 -4 -5 3 -10 11 -10 16
0 6 5 7 10 4 6 -3 10 -11 10 -16z m-170 -159 c0 -13 -1 -13 -10 0 -5 8 -10 22
-10 30 0 13 1 13 10 0 5 -8 10 -22 10 -30z m100 -114 c8 -12 16 -37 18 -56 5
-45 24 -58 36 -25 12 32 26 32 26 1 0 -14 5 -28 11 -32 8 -4 9 0 4 15 -3 11
-2 21 3 21 16 0 22 -44 8 -58 -30 -30 -99 33 -170 156 -13 22 47 1 64 -22z
m162 -126 c-9 -16 -25 -30 -35 -30 -10 0 -15 5 -12 10 3 6 13 10 21 10 9 0 12
5 8 11 -3 6 0 15 7 20 25 16 28 9 11 -21z m-2175 -173 c-2 -6 -16 6 -32 27
-23 30 -26 39 -15 46 10 6 19 -2 32 -27 11 -19 17 -40 15 -46z m2300 56 c-10
-10 -25 -29 -36 -42 -17 -23 -18 -24 -16 -3 2 26 33 62 53 62 13 0 13 -3 -1
-17z m-2130 -45 c-3 -8 -6 -5 -6 6 -1 11 2 17 5 13 3 -3 4 -12 1 -19z m-33
-99 c-3 -5 -10 -7 -15 -3 -5 3 -7 10 -3 15 3 5 10 7 15 3 5 -3 7 -10 3 -15z
m646 -53 c20 -15 24 -50 7 -65 -11 -8 -23 -8 -51 4 -20 8 -36 19 -36 24 0 4
-14 8 -32 9 -18 0 -42 6 -55 13 -17 9 -26 9 -36 0 -12 -9 -16 -8 -21 5 -4 10
-1 21 6 26 17 11 199 -2 218 -16z m-161 -142 c6 -35 33 -56 63 -50 34 7 37
-10 7 -48 -28 -36 -30 -103 -4 -134 20 -24 96 -62 122 -62 22 0 9 -25 -15 -28
-25 -4 -90 28 -119 60 -22 23 -73 124 -73 144 0 5 -11 25 -25 44 -32 43 -33
78 -2 90 29 12 41 7 46 -16z m-1630 -13 c11 -7 12 -22 7 -62 -4 -29 -11 -60
-16 -70 -7 -12 -5 -19 5 -23 20 -7 20 -65 0 -72 -8 -4 -22 -1 -30 6 -18 15
-20 66 -2 74 8 3 0 16 -23 38 -26 24 -36 42 -37 68 -1 19 1 27 3 18 8 -26 31
-22 50 7 18 27 22 29 43 16z m1526 -46 c7 -16 16 -45 20 -62 3 -18 11 -35 16
-38 5 -4 9 -11 9 -16 0 -6 -4 -7 -10 -4 -16 10 -47 90 -54 136 -3 24 -3 37 0
29 3 -8 12 -28 19 -45z m425 -35 c0 -11 5 -20 10 -20 6 0 10 -5 10 -11 0 -14
26 -39 42 -40 9 0 10 -2 1 -5 -15 -6 -83 25 -83 37 0 5 -7 9 -15 9 -15 0 -21
31 -8 43 15 15 43 7 43 -13z m100 -110 c0 -5 -4 -10 -10 -10 -5 0 -10 5 -10
10 0 6 5 10 10 10 6 0 10 -4 10 -10z m-57 -54 c24 -1 27 -4 22 -28 -5 -20 -1
-29 13 -37 11 -6 23 -7 27 -3 4 4 3 -2 -3 -13 -18 -36 -50 -58 -74 -52 -12 4
-28 1 -35 -5 -21 -17 -15 7 7 27 17 16 18 20 5 38 -20 28 -19 37 3 38 9 0 -2
7 -25 16 -53 18 -56 35 -5 27 20 -4 49 -7 65 -8z m-2016 -48 c6 -7 13 -38 16
-68 4 -30 11 -86 17 -125 5 -38 12 -176 16 -305 6 -231 5 -236 -15 -254 -31
-28 -45 -8 -47 67 -7 222 -18 393 -25 402 -4 6 -6 53 -4 105 2 56 -1 108 -7
127 -9 25 -9 35 1 47 16 19 35 20 48 4z m1818 -58 c71 -23 72 -23 48 -27 -12
-2 -43 8 -70 22 -49 27 -47 27 22 5z m1448 -478 c9 -8 17 -21 17 -28 0 -22 61
-84 99 -100 20 -9 57 -16 83 -17 49 -2 61 -10 32 -21 -13 -5 -14 -9 -4 -21 7
-8 9 -15 4 -15 -4 0 2 -10 14 -23 18 -19 19 -26 9 -36 -9 -11 -9 -14 1 -18 6
-3 9 -9 6 -14 -3 -6 -1 -16 6 -24 18 -21 -7 -29 -35 -11 -13 9 -33 16 -43 16
-10 0 -27 7 -38 15 -10 8 -26 15 -34 15 -18 1 -84 60 -100 90 -6 11 -17 20
-26 20 -19 0 -148 69 -152 81 -2 6 -10 5 -18 -2 -11 -9 -15 -8 -20 4 -9 24 12
53 48 66 18 7 49 20 68 30 37 18 54 17 83 -7z m504 -38 c-3 -3 -12 -4 -19 -1
-8 3 -5 6 6 6 11 1 17 -2 13 -5z m-1517 -138 c0 -3 -4 -8 -10 -11 -5 -3 -10
-1 -10 4 0 6 5 11 10 11 6 0 10 -2 10 -4z m1280 0 c0 -3 -4 -8 -10 -11 -5 -3
-10 -1 -10 4 0 6 5 11 10 11 6 0 10 -2 10 -4z m-3478 -151 c7 -72 1 -271 -8
-287 -3 -4 -9 -6 -14 -3 -10 6 -24 82 -21 113 1 13 -2 28 -7 35 -13 17 -14
175 -1 199 6 10 18 18 27 16 13 -2 19 -19 24 -73z m3064 12 c39 -28 98 -77
132 -107 33 -30 102 -82 153 -114 52 -32 130 -82 174 -111 102 -67 186 -109
258 -130 31 -9 64 -23 72 -31 21 -22 19 -71 -3 -78 -9 -3 -111 -8 -226 -11
-115 -3 -216 -10 -225 -15 -15 -7 -395 -40 -462 -40 -19 0 -33 15 -64 65 -22
35 -50 69 -61 76 -12 6 -27 22 -34 35 -12 21 -8 29 40 94 43 58 55 84 70 149
17 78 88 271 99 271 3 0 38 -24 77 -53z m-1126 -28 c0 -5 9 -9 20 -9 12 0 24
-9 29 -22 5 -13 21 -35 36 -50 15 -16 23 -28 17 -28 -6 0 -17 8 -24 18 -7 10
-21 21 -30 25 -10 3 -18 15 -18 25 0 14 -9 21 -30 26 -17 3 -30 12 -30 20 0
10 6 13 15 10 8 -4 15 -10 15 -15z m297 -185 c-3 -3 -12 -4 -19 -1 -8 3 -5 6
6 6 11 1 17 -2 13 -5z m-1689 -136 c3 -13 -3 -18 -21 -18 -24 0 -42 21 -29 34
12 13 47 1 50 -16z m-70 -10 c-6 -18 -28 -21 -28 -4 0 9 7 16 16 16 9 0 14 -5
12 -12z m-450 -109 c-4 -47 -34 -52 -43 -8 -6 25 -3 35 11 46 24 18 36 3 32
-38z m-6 -155 c-2 -20 2 -42 8 -49 6 -8 10 -26 8 -42 -3 -24 -8 -28 -33 -28
-35 0 -37 12 -16 114 9 47 15 61 24 52 6 -6 10 -27 9 -47z m3696 -236 c7 -7
12 -21 12 -32 0 -12 9 -48 19 -81 10 -33 27 -111 37 -174 16 -98 22 -114 41
-122 11 -4 25 -13 29 -21 10 -15 6 -78 -6 -93 -4 -5 -11 -31 -15 -57 -8 -54
-16 -58 -38 -25 -9 12 -34 42 -56 66 -38 40 -41 48 -41 98 0 30 -5 64 -12 76
-6 12 -12 67 -13 122 -1 55 -7 110 -13 122 -7 12 -12 30 -12 41 0 11 -7 25
-15 32 -22 19 -18 28 18 44 41 18 50 19 65 4z m-312 -90 c-5 -38 -3 -58 4 -58
5 0 10 -12 9 -27 0 -16 -3 -22 -6 -15 -2 6 -12 12 -20 12 -10 0 -13 -6 -9 -16
3 -9 6 -24 6 -34 0 -12 9 -20 23 -22 12 -2 21 -9 19 -17 -2 -7 4 -22 13 -31
10 -11 18 -42 21 -82 2 -34 9 -99 15 -142 11 -71 10 -80 -5 -91 -15 -11 -15
-13 5 -18 16 -4 20 -11 16 -26 -3 -12 -1 -21 3 -21 5 0 12 -9 15 -20 6 -17 15
-20 73 -20 37 0 98 5 136 10 88 13 99 5 69 -53 -12 -23 -27 -59 -34 -80 -25
-72 -51 -76 -173 -23 -46 20 -94 36 -105 36 -11 0 -23 5 -26 10 -4 6 -12 9
-18 8 -7 -1 -22 3 -34 10 -19 11 -22 10 -17 -3 4 -8 10 -15 15 -15 5 0 9 -8 9
-17 -1 -15 -4 -14 -20 6 -21 25 -27 61 -10 61 6 0 10 12 10 28 0 18 -10 35
-31 53 -36 29 -33 41 15 64 25 12 35 24 38 46 3 17 0 29 -7 29 -7 0 -16 37
-24 90 -7 49 -16 92 -20 94 -4 3 -9 40 -10 83 -3 98 -6 121 -13 129 -4 3 -4
12 -2 19 6 15 -13 56 -30 67 -19 13 8 43 45 49 52 8 62 -5 55 -73z m-170 7 c0
-22 8 -65 17 -95 20 -72 27 -210 10 -210 -7 0 -10 -7 -7 -15 4 -8 10 -13 14
-10 5 3 11 1 15 -5 3 -6 -4 -10 -17 -10 -17 0 -28 10 -41 38 -30 63 -75 219
-67 233 6 8 9 4 12 -12 3 -24 4 -24 15 -3 17 30 -8 72 -55 90 -1 1 0 8 4 17 3
9 20 18 37 20 57 7 62 5 63 -38z m-106 -36 c0 -5 -4 -9 -10 -9 -5 0 -10 7 -10
16 0 8 5 12 10 9 6 -3 10 -10 10 -16z m180 -345 c0 -8 -4 -12 -10 -9 -5 3 -10
10 -10 16 0 5 5 9 10 9 6 0 10 -7 10 -16z m7 -281 c-4 -30 3 -51 29 -99 18
-34 47 -76 64 -94 16 -18 30 -38 30 -45 0 -7 6 -15 14 -18 8 -3 28 -33 46 -66
33 -61 49 -68 76 -34 10 11 13 11 24 -2 24 -29 15 -71 -24 -120 -39 -47 -57
-55 -36 -15 15 27 6 50 -19 50 -12 0 -30 -18 -50 -50 -36 -58 -54 -69 -76 -46
-9 9 -27 16 -41 16 -32 0 -62 31 -68 72 -6 35 -35 279 -43 366 -5 51 -4 54 33
87 22 19 41 34 43 35 2 0 1 -17 -2 -37z m1187 -28 c3 -8 1 -15 -4 -15 -6 0
-10 7 -10 15 0 8 2 15 4 15 2 0 6 -7 10 -15z m-1058 -99 c10 -8 16 -18 11 -22
-4 -4 -16 2 -27 14 -23 25 -14 29 16 8z m-293 -93 c31 -67 38 -94 47 -190 11
-116 16 -143 30 -143 4 0 13 -14 20 -30 11 -27 10 -33 -8 -53 -15 -17 -18 -27
-11 -45 l9 -24 26 21 26 21 19 -24 c11 -13 19 -30 19 -36 0 -17 -179 -210
-195 -210 -7 0 -28 18 -46 41 l-32 40 33 27 c31 27 32 28 20 70 -9 37 -9 48 5
68 18 28 12 66 -17 103 -12 15 -18 41 -19 75 0 28 -4 70 -7 94 l-7 43 -57 -37
c-32 -19 -58 -39 -58 -44 0 -5 11 -30 24 -56 14 -27 22 -52 20 -56 -9 -14
-108 -68 -125 -68 -10 0 -35 43 -73 125 -33 69 -57 127 -55 128 2 2 55 32 117
67 62 35 141 88 175 116 34 29 67 53 72 53 6 1 28 -34 48 -76z m387 -100 c0
-7 -3 -13 -7 -13 -9 1 -73 92 -73 104 0 14 79 -78 80 -91z m-809 -275 c31 -71
28 -82 -28 -93 -20 -4 -71 -24 -112 -44 -42 -21 -97 -43 -122 -49 -26 -7 -75
-25 -110 -42 -35 -16 -72 -30 -82 -30 -10 0 -49 -13 -85 -29 -100 -43 -108
-45 -130 -23 -10 10 -37 22 -58 25 -58 9 -67 12 -88 24 -16 9 -12 13 37 36 30
14 70 28 88 32 19 4 46 13 60 21 15 7 67 27 115 43 98 33 143 51 344 140 74
32 137 57 139 55 3 -2 17 -32 32 -66z m1161 -27 c13 -11 37 -32 53 -46 17 -14
47 -40 68 -58 50 -42 173 -162 216 -211 19 -22 63 -82 98 -135 34 -53 80 -120
100 -150 21 -30 64 -98 95 -150 32 -53 62 -101 68 -108 5 -7 10 -15 10 -17 0
-3 27 -51 60 -107 33 -55 60 -105 60 -110 0 -5 3 -9 8 -9 8 0 32 -49 32 -67 0
-7 -4 -13 -10 -13 -5 0 -10 9 -10 20 0 12 -7 20 -16 20 -9 0 -23 9 -32 19 -15
16 -25 18 -69 12 -53 -7 -90 0 -59 12 22 9 20 27 -3 27 -10 0 -21 7 -25 15 -7
18 -49 20 -76 3 -15 -10 -29 -10 -67 0 -33 9 -49 10 -51 3 -6 -18 -79 -12
-117 9 -39 22 -91 27 -97 8 -3 -7 -10 -8 -17 -4 -11 7 -11 10 0 17 10 6 6 9
-12 9 -31 0 -89 27 -89 41 0 6 -5 7 -10 4 -6 -3 -13 1 -17 10 -5 15 -7 15 -15
2 -7 -13 -18 -6 -61 39 -43 43 -60 54 -86 54 -33 0 -61 -19 -61 -42 0 -8 -4
-6 -11 5 -5 9 -7 22 -4 27 3 6 -1 10 -9 10 -12 0 -16 11 -16 45 0 52 -23 72
-46 40 -8 -10 -14 -15 -14 -10 0 5 -6 1 -13 -9 -12 -16 -15 -12 -26 37 -7 32
-21 62 -34 74 -25 22 -71 43 -93 43 -9 0 -24 10 -33 22 -22 27 -56 18 -46 -12
4 -12 2 -20 -5 -20 -6 0 -18 -7 -27 -15 -11 -11 -19 -13 -27 -5 -7 5 -16 7
-19 3 -4 -3 -7 4 -7 16 0 12 8 25 17 28 39 15 74 76 49 87 -6 3 -1 3 11 0 18
-4 22 -2 17 10 -3 9 -1 16 5 16 6 0 11 -5 11 -11 0 -5 5 -7 10 -4 6 4 7 11 4
17 -4 7 -2 8 5 4 6 -4 14 -1 17 7 3 8 15 18 27 21 12 3 18 8 14 12 -7 8 11 34
23 34 5 0 6 -9 3 -20 -4 -13 0 -20 9 -20 23 0 28 11 17 32 -10 18 1 32 79 112
168 170 211 233 212 309 0 43 2 44 32 18z m683 -107 c-12 -23 -21 -31 -26 -22
-8 13 29 73 39 63 3 -3 -2 -21 -13 -41z m-1713 -56 c20 -35 34 -66 32 -70 -2
-3 -68 -38 -146 -76 -135 -66 -308 -132 -347 -132 -9 0 -21 -4 -27 -9 -11 -11
-159 -61 -179 -61 -15 0 -174 -52 -210 -69 -81 -39 -230 -99 -359 -146 l-98
-37 -74 38 c-41 21 -74 40 -74 44 0 12 108 70 185 99 44 16 101 38 127 50 101
43 467 161 501 161 8 0 7 -4 -3 -10 -12 -8 -11 -10 5 -9 37 2 122 27 95 28
l-25 2 24 19 c13 11 55 30 95 42 39 11 96 33 126 48 30 15 71 31 90 35 19 4
51 17 70 30 43 28 143 85 150 85 3 0 22 -28 42 -62z m-1202 -128 c-20 -12 -6
-23 33 -26 34 -3 98 -17 132 -29 16 -5 17 -5 5 4 -8 5 -11 13 -7 18 5 4 11 2
15 -4 4 -6 16 -13 27 -16 19 -4 18 -5 -2 -6 -12 0 -24 -5 -28 -10 -3 -5 -36
-19 -73 -32 -37 -12 -105 -39 -152 -61 -46 -22 -146 -66 -221 -99 l-137 -59
-44 25 c-24 14 -50 25 -59 25 -9 0 -22 6 -28 14 -9 11 1 22 56 58 37 25 100
59 138 76 155 67 228 95 255 97 16 1 35 7 42 12 14 11 38 21 53 22 6 0 3 -3
-5 -9z m108 -7 c-10 -2 -26 -2 -35 0 -10 3 -2 5 17 5 19 0 27 -2 18 -5z m159
-29 c-3 -3 -12 -4 -19 -1 -8 3 -5 6 6 6 11 1 17 -2 13 -5z m330 -40 c-3 -3
-12 -4 -19 -1 -8 3 -5 6 6 6 11 1 17 -2 13 -5z m1127 -338 c-7 -18 -22 -20
-44 -6 -12 8 -9 10 13 10 15 0 27 5 27 12 0 6 2 9 5 6 3 -3 3 -13 -1 -22z
m283 -118 c-3 -8 -6 -5 -6 6 -1 11 2 17 5 13 3 -3 4 -12 1 -19z m848 -248 c18
-8 17 -9 -7 -9 -16 -1 -28 4 -28 9 0 12 8 12 35 0z"/>
<path d="M2095 4300 c3 -5 8 -10 11 -10 2 0 4 5 4 10 0 6 -5 10 -11 10 -5 0
-7 -4 -4 -10z"/>
<path d="M3500 3611 c0 -5 6 -14 14 -20 10 -8 16 -8 25 2 6 8 8 17 4 20 -9 10
-43 8 -43 -2z"/>
<path d="M3360 2261 c0 -5 7 -11 14 -14 10 -4 13 -1 9 9 -6 15 -23 19 -23 5z"/>
<path d="M3521 1526 c-1 -29 2 -37 10 -29 8 8 8 19 1 40 -10 28 -10 28 -11
-11z"/>
<path d="M3901 394 c0 -11 3 -14 6 -6 3 7 2 16 -1 19 -3 4 -6 -2 -5 -13z"/>
<path d="M3469 6363 c5 -10 22 -18 38 -19 128 -3 499 -27 542 -35 30 -5 113
-9 185 -9 72 0 149 -5 171 -10 22 -6 164 -19 315 -30 292 -21 536 -40 610 -46
25 -3 89 -7 143 -9 54 -3 107 -10 117 -15 10 -6 36 -10 57 -10 41 0 85 -19 48
-20 -17 -1 -17 -3 5 -11 13 -6 28 -15 33 -22 5 -7 6 -3 2 10 -4 16 0 25 14 32
22 12 61 14 85 5 18 -7 22 -30 6 -36 -5 -1 -11 -23 -13 -47 -3 -38 -2 -41 10
-25 8 11 28 18 54 20 56 2 69 18 39 44 -33 28 -18 38 65 40 99 4 109 2 135
-20 19 -17 24 -17 37 -5 35 35 102 1 94 -47 0 -5 16 -8 38 -8 22 0 44 -6 51
-15 7 -8 16 -15 21 -15 5 0 9 72 9 160 l0 160 -1460 0 c-1389 0 -1461 -1
-1451 -17z m2426 -213 c-3 -5 -10 -10 -16 -10 -5 0 -9 5 -9 10 0 6 7 10 16 10
8 0 12 -4 9 -10z"/>
<path d="M1965 6200 c3 -5 11 -10 16 -10 6 0 7 5 4 10 -3 6 -11 10 -16 10 -6
0 -7 -4 -4 -10z"/>
<path d="M5590 6100 c-11 -7 -8 -11 13 -19 33 -13 87 -14 87 -3 0 4 -16 8 -36
9 -20 1 -40 6 -43 12 -4 6 -12 7 -21 1z"/>
<path d="M6180 6066 c0 -2 7 -9 15 -16 9 -7 15 -8 15 -2 0 5 -7 12 -15 16 -8
3 -15 4 -15 2z"/>
<path d="M1185 5996 c-38 -41 -67 -134 -69 -223 -1 -52 -4 -63 -20 -67 -15 -4
-17 -8 -8 -19 9 -11 7 -16 -13 -25 -15 -7 -25 -20 -25 -32 0 -11 -7 -32 -16
-45 l-16 -24 35 6 c31 5 37 2 53 -23 32 -52 88 -124 96 -124 4 0 17 9 29 21
17 17 19 25 10 52 -5 18 -12 52 -16 77 -3 25 -8 55 -12 68 -4 17 -1 22 16 22
23 0 23 2 25 98 1 56 5 65 34 94 28 29 35 31 52 20 11 -6 27 -12 35 -12 8 0
25 -10 37 -22 23 -23 114 -42 156 -31 22 5 22 6 6 24 -9 11 -24 19 -32 19 -8
0 -12 6 -9 13 9 23 -123 129 -178 143 -14 3 -28 10 -31 15 -3 5 -28 9 -56 9
-45 0 -54 -4 -83 -34z m40 -316 c-3 -5 -10 -10 -16 -10 -5 0 -9 5 -9 10 0 6 7
10 16 10 8 0 12 -4 9 -10z"/>
<path d="M5920 6018 c0 -24 18 -41 35 -35 19 8 13 22 -16 37 -14 8 -19 7 -19
-2z"/>
<path d="M6199 5927 c5 -14 7 -28 4 -31 -4 -3 -1 -6 6 -6 16 0 10 52 -7 58 -9
3 -10 -2 -3 -21z"/>
<path d="M6030 5920 c-9 -6 -7 -11 9 -20 12 -6 27 -9 34 -6 9 3 8 5 -1 5 -7 1
-11 5 -8 10 8 12 -18 21 -34 11z"/>
<path d="M5975 5890 c3 -5 8 -10 11 -10 2 0 4 5 4 10 0 6 -5 10 -11 10 -5 0
-7 -4 -4 -10z"/>
<path d="M5831 5824 c0 -11 3 -14 6 -6 3 7 2 16 -1 19 -3 4 -6 -2 -5 -13z"/>
<path d="M1600 5815 c0 -8 5 -15 10 -15 6 0 10 7 10 15 0 8 -4 15 -10 15 -5 0
-10 -7 -10 -15z"/>
<path d="M3264 5290 c3 -14 6 -31 6 -37 0 -7 7 -13 15 -13 21 0 18 20 -6 50
l-21 25 6 -25z"/>
<path d="M1056 5203 c-11 -11 -6 -23 9 -23 8 0 15 4 15 9 0 13 -16 22 -24 14z"/>
<path d="M1540 4750 c0 -5 5 -10 10 -10 6 0 10 5 10 10 0 6 -4 10 -10 10 -5 0
-10 -4 -10 -10z"/>
<path d="M0 4676 c0 -9 5 -16 10 -16 6 0 10 4 10 9 0 6 -4 13 -10 16 -5 3 -10
-1 -10 -9z"/>
<path d="M3509 4617 c-20 -12 -44 -28 -53 -36 -29 -24 -14 -74 17 -54 6 4 22
6 35 4 17 -2 25 3 29 18 4 15 13 21 34 21 25 0 29 4 29 29 0 21 -6 30 -22 35
-29 7 -27 8 -69 -17z"/>
<path d="M3585 4540 c3 -5 8 -10 11 -10 2 0 4 5 4 10 0 6 -5 10 -11 10 -5 0
-7 -4 -4 -10z"/>
<path d="M390 4522 c0 -24 8 -32 26 -25 22 8 17 43 -6 43 -13 0 -20 -7 -20
-18z"/>
<path d="M2785 4499 c-4 -6 -5 -13 -2 -16 7 -7 27 6 27 18 0 12 -17 12 -25 -2z"/>
<path d="M3559 4489 c-5 -3 7 -11 27 -18 31 -11 38 -11 52 3 11 11 12 16 4 17
-37 4 -75 3 -83 -2z"/>
<path d="M3864 4478 c-15 -7 -23 -23 -27 -52 -8 -58 9 -69 92 -60 45 5 65 3
71 -5 11 -19 40 15 40 48 0 37 -17 51 -60 51 -20 0 -45 7 -56 15 -22 17 -31
17 -60 3z"/>
<path d="M640 4429 c0 -12 5 -19 12 -17 18 6 20 25 3 31 -10 5 -15 0 -15 -14z"/>
<path d="M620 4380 c0 -5 5 -10 10 -10 6 0 10 5 10 10 0 6 -4 10 -10 10 -5 0
-10 -4 -10 -10z"/>
<path d="M483 4315 c4 -8 2 -17 -3 -20 -6 -4 -10 -20 -10 -38 0 -27 2 -29 14
-17 22 24 28 77 9 84 -11 4 -14 2 -10 -9z"/>
<path d="M348 4275 c-3 -6 0 -23 7 -38 l11 -28 12 26 c15 34 15 38 -2 32 -8
-3 -16 -1 -19 6 -2 6 -6 7 -9 2z"/>
<path d="M520 4230 c0 -5 5 -10 11 -10 5 0 7 5 4 10 -3 6 -8 10 -11 10 -2 0
-4 -4 -4 -10z"/>
<path d="M566 4231 c-4 -7 -5 -15 -2 -18 9 -9 19 4 14 18 -4 11 -6 11 -12 0z"/>
<path d="M550 4117 c0 -20 4 -37 10 -37 5 0 7 14 3 33 -8 45 -13 47 -13 4z"/>
<path d="M768 4124 c3 -17 8 -22 15 -15 11 11 3 41 -11 41 -5 0 -7 -12 -4 -26z"/>
<path d="M680 3943 c0 -17 -4 -35 -10 -38 -5 -3 -10 -10 -10 -16 0 -5 9 -4 20
3 23 15 43 65 29 73 -5 4 -9 0 -9 -7 0 -9 -3 -9 -10 2 -7 11 -10 7 -10 -17z"/>
<path d="M635 3870 c-3 -5 -17 -10 -31 -10 -13 0 -24 -4 -24 -10 0 -17 36 -11
55 10 10 11 15 20 12 20 -3 0 -9 -4 -12 -10z"/>
<path d="M805 3670 c-3 -5 1 -10 10 -10 9 0 13 5 10 10 -3 6 -8 10 -10 10 -2
0 -7 -4 -10 -10z"/>
<path d="M1165 3660 c-3 -6 1 -7 9 -4 18 7 21 14 7 14 -6 0 -13 -4 -16 -10z"/>
<path d="M820 3653 c-8 -4 -21 -15 -29 -26 -10 -14 -21 -18 -42 -13 -24 5 -29
2 -29 -14 0 -17 7 -20 54 -20 54 0 70 -9 72 -40 1 -8 2 -25 3 -37 1 -24 31
-33 31 -10 0 8 3 8 9 -2 7 -11 14 -9 37 13 28 26 32 26 110 20 69 -6 82 -4 87
10 4 10 1 16 -8 16 -29 0 -95 33 -95 47 0 11 -9 13 -42 8 -38 -5 -47 -3 -75
25 -31 29 -52 35 -83 23z"/>
<path d="M750 3470 c0 -23 5 -31 25 -36 14 -3 25 -11 25 -18 0 -17 49 -34 97
-35 32 0 42 4 46 20 5 17 0 19 -44 19 -27 0 -49 4 -49 9 0 17 -32 42 -46 37
-8 -3 -20 3 -26 14 -18 28 -28 25 -28 -10z"/>
<path d="M4560 3478 c0 -8 4 -18 9 -23 5 -6 11 -19 14 -30 3 -11 5 -2 4 19 -1
22 -8 41 -14 44 -7 2 -13 -3 -13 -10z"/>
<path d="M700 3427 c0 -19 16 -31 24 -18 3 5 -1 14 -9 21 -12 10 -15 10 -15
-3z"/>
<path d="M960 3385 c0 -8 2 -15 4 -15 2 0 6 7 10 15 3 8 1 15 -4 15 -6 0 -10
-7 -10 -15z"/>
<path d="M4930 3065 l-23 -24 29 -11 c35 -14 137 -4 176 16 15 8 36 14 48 14
11 0 20 6 20 14 0 11 -24 14 -113 15 -108 1 -114 0 -137 -24z"/>
<path d="M4735 3056 c-17 -12 -18 -16 -3 -47 9 -19 23 -70 32 -114 34 -163 58
-271 66 -290 9 -23 26 -107 36 -177 3 -27 9 -48 13 -48 3 0 12 -26 19 -57 24
-108 65 -248 82 -278 l17 -30 82 4 82 3 -2 -71 c-1 -39 1 -74 4 -77 3 -3 2
-17 -3 -30 -6 -15 -6 -24 0 -24 12 0 13 -40 2 -56 -4 -7 -16 -14 -27 -17 -16
-4 -15 -5 6 -6 18 -1 28 -8 32 -21 8 -30 -3 -60 -22 -61 -11 0 -9 -3 7 -9 17
-7 22 -17 22 -45 0 -23 -6 -38 -15 -41 -14 -6 -14 -8 1 -19 12 -8 16 -25 16
-56 -1 -36 48 -268 89 -419 5 -19 11 -53 13 -75 3 -22 5 -41 7 -42 1 -2 2 -6
3 -10 17 -83 26 -133 28 -153 2 -18 8 -24 23 -23 33 4 65 -6 65 -21 0 -16 21
-26 58 -26 39 0 60 -16 44 -32 -6 -6 -12 -20 -12 -29 0 -10 -11 -19 -31 -23
-17 -3 -28 -10 -24 -15 7 -13 -12 -24 -55 -31 -26 -4 -36 -11 -38 -27 -3 -22
-1 -22 91 -20 52 1 90 5 83 9 -6 5 -2 8 12 8 12 0 21 -3 21 -7 -4 -23 3 -33
21 -33 15 0 20 -7 20 -25 0 -17 4 -23 15 -19 8 3 19 3 25 -1 17 -10 -16 -36
-55 -42 -40 -6 -47 -23 -10 -23 40 0 29 -20 -12 -22 -88 -3 -164 -20 -145 -32
7 -4 25 -5 41 -1 29 6 96 -14 73 -22 -7 -3 -19 0 -27 7 -10 9 -24 8 -57 -3
-49 -17 -61 -14 -53 14 6 19 -9 27 -20 9 -8 -12 15 -48 35 -54 9 -2 6 -4 -7
-5 -19 -1 -23 -7 -23 -31 0 -23 6 -33 23 -39 12 -5 23 -5 25 0 2 4 9 6 16 3 6
-2 28 2 47 9 46 19 113 31 105 19 -3 -5 -19 -12 -36 -16 -16 -3 -43 -9 -60
-12 -16 -3 -27 -10 -24 -15 3 -5 0 -9 -5 -9 -6 0 -11 -4 -11 -10 0 -5 10 -10
22 -10 28 0 88 -22 88 -32 0 -4 -11 -8 -25 -8 -18 0 -25 -5 -25 -19 0 -15 -9
-20 -46 -23 -33 -2 -48 1 -52 10 -3 8 0 17 6 21 7 4 6 16 -3 39 -19 45 -26 40
-21 -16 2 -26 4 -57 5 -69 1 -16 6 -21 16 -17 9 4 15 0 15 -10 0 -9 -6 -15
-12 -14 -8 2 -14 -9 -16 -25 l-3 -28 403 2 c222 1 392 6 378 10 -14 4 -18 8
-10 8 8 1 25 4 38 7 18 5 21 3 16 -10 -5 -13 0 -16 22 -15 34 2 93 16 79 19
-5 1 1 6 15 11 19 7 15 8 -17 4 -57 -7 -55 11 2 19 44 7 45 8 45 46 l0 38 -36
-8 c-43 -10 -65 -4 -57 16 3 8 0 20 -6 28 -16 19 13 43 32 27 15 -12 27 -5 27
16 0 18 -117 10 -179 -12 -43 -15 -105 -12 -116 5 -9 14 54 33 90 27 19 -3 37
-2 39 2 3 4 19 6 36 3 18 -2 30 0 30 7 0 6 -7 11 -15 11 -8 0 -15 5 -15 10 0
6 7 10 15 10 8 0 15 5 15 10 0 13 -26 13 -52 -1 -17 -9 -23 -8 -30 5 -5 9 -16
16 -25 16 -18 0 -8 14 10 15 39 2 97 21 127 41 28 19 31 24 15 25 -20 1 3 9
68 23 22 5 27 12 27 36 0 25 -4 30 -24 30 -12 0 -37 -5 -55 -11 -17 -6 -39 -8
-48 -5 -14 6 -14 8 3 21 17 13 17 14 2 15 -10 0 -18 5 -18 11 0 7 -16 9 -50 4
-32 -4 -50 -3 -50 3 0 17 32 22 72 13 43 -10 53 -5 32 17 -13 12 -17 13 -24 2
-4 -7 -13 -9 -21 -5 -9 6 -6 11 12 18 13 6 27 9 32 9 10 -3 9 6 -3 28 -6 12
-7 21 0 25 5 3 7 12 4 19 -3 8 2 16 13 19 14 4 12 5 -7 7 -24 2 -24 2 5 10 17
5 51 14 78 20 36 9 47 16 47 31 0 16 -7 19 -47 19 -53 0 -49 -5 -52 85 -3 80
1 89 52 104 33 10 47 20 47 32 0 16 -7 17 -48 12 l-48 -5 -13 41 c-7 26 -9 47
-3 58 5 9 7 23 5 33 -5 19 34 40 77 40 22 0 30 5 30 18 0 14 -8 16 -50 14
l-50 -4 0 47 c0 38 4 48 20 52 11 3 17 9 14 14 -3 5 11 9 30 9 l36 0 0 744 c0
486 -3 747 -10 751 -5 3 -10 15 -10 26 0 10 5 19 10 19 6 0 10 43 10 110 l0
110 -144 0 c-78 0 -156 -4 -172 -10 -16 -5 -94 -11 -174 -13 -80 -1 -152 -7
-160 -12 -7 -4 -63 -10 -124 -12 -61 -2 -127 -6 -146 -9 -19 -3 -72 -6 -118
-7 -68 -2 -85 -5 -93 -19 -13 -24 -23 -23 -38 5 -9 17 -19 22 -44 19 -210 -21
-265 -24 -305 -13 -35 10 -42 16 -37 30 10 32 -5 51 -39 51 -18 0 -41 -6 -51
-14z m35 -40 c0 -11 -19 -15 -25 -6 -3 5 1 10 9 10 9 0 16 -2 16 -4z m5 -36
c3 -5 1 -10 -4 -10 -6 0 -11 5 -11 10 0 6 2 10 4 10 3 0 8 -4 11 -10z m1205
-221 c0 -16 -4 -29 -10 -29 -5 0 -10 16 -10 36 0 21 4 33 10 29 6 -3 10 -19
10 -36z m-181 -16 c6 -21 8 -65 6 -98 -3 -50 -7 -61 -23 -63 -17 -3 -20 5 -26
72 -7 83 -1 126 20 126 7 0 18 -17 23 -37z m291 13 c0 -30 -15 -42 -24 -20
-10 27 -7 44 9 44 9 0 15 -9 15 -24z m-756 -18 c9 -37 5 -110 -8 -148 -12 -34
-13 -34 -24 -13 -13 23 -16 140 -6 167 9 23 31 19 38 -6z m-154 -118 c22 -42
26 -95 9 -105 -6 -4 -7 -19 -4 -36 4 -15 2 -36 -3 -45 -9 -16 -10 -16 -20 3
-6 11 -9 29 -6 40 3 12 -2 32 -10 46 -26 38 -36 85 -26 113 14 35 37 29 60
-16z m16 -295 c17 -27 11 -65 -11 -65 -24 0 -37 35 -23 64 14 32 14 32 34 1z
m542 -1 c32 -9 29 -41 -5 -48 -45 -10 -112 -4 -125 11 -15 19 -5 26 50 34 26
3 49 7 52 8 3 0 15 -2 28 -5z m-298 -28 c0 -8 -9 -18 -20 -21 -22 -7 -28 -45
-6 -45 7 0 19 7 26 15 16 20 49 19 71 -1 15 -13 23 -14 52 -3 44 15 65 7 69
-27 2 -15 13 -34 26 -42 22 -14 23 -14 29 7 3 11 16 24 29 27 13 3 26 15 29
25 5 13 16 19 37 19 17 0 59 5 94 12 53 9 66 9 86 -4 15 -10 43 -14 82 -12 53
2 62 -1 78 -22 11 -13 26 -24 33 -24 27 0 66 -24 63 -38 -3 -15 -74 -45 -130
-56 -146 -27 -551 -36 -731 -17 -136 15 -185 29 -193 54 -8 24 18 47 53 47 15
0 40 17 67 45 30 31 53 45 70 45 15 0 29 7 32 15 8 19 54 20 54 1z m63 -1683
c-7 -2 -19 -2 -25 0 -7 3 -2 5 12 5 14 0 19 -2 13 -5z m743 -238 c-15 -16 -32
-19 -80 -17 -52 3 -14 16 87 31 5 0 2 -6 -7 -14z m-189 -31 c-3 -3 -12 -4 -19
-1 -8 3 -5 6 6 6 11 1 17 -2 13 -5z m28 -34 c-4 -7 -65 -1 -65 6 0 3 15 4 34
2 19 -1 33 -5 31 -8z m58 -30 c-6 -22 -18 -26 -29 -9 -3 6 0 15 7 20 22 14 28
11 22 -11z m-43 6 c0 -3 -4 -8 -10 -11 -5 -3 -10 -1 -10 4 0 6 5 11 10 11 6 0
10 -2 10 -4z m-391 -32 c3 -2 -16 -6 -104 -19 -22 -4 -26 -2 -15 5 8 5 24 10
35 11 l20 0 -20 10 c-13 6 -4 7 30 3 28 -4 52 -8 54 -10z m-42 -30 c-3 -3 -12
-4 -19 -1 -8 3 -5 6 6 6 11 1 17 -2 13 -5z m-76 -17 c23 4 30 3 25 -5 -13 -21
-96 -12 -96 9 0 6 8 5 19 -1 11 -5 34 -7 52 -3z m655 -25 c-3 -6 -34 -13 -68
-17 -34 -4 -70 -12 -80 -18 -9 -6 -20 -8 -24 -4 -13 13 13 29 53 33 21 2 56 7
78 12 44 9 50 8 41 -6z m-17 -36 c-2 -2 -17 -6 -34 -10 -22 -5 -26 -4 -15 4
14 9 59 15 49 6z m31 -20 c0 -9 -30 -14 -35 -6 -4 6 3 10 14 10 12 0 21 -2 21
-4z m-732 -43 c-10 -2 -26 -2 -35 0 -10 3 -2 5 17 5 19 0 27 -2 18 -5z m-35
-20 c-7 -2 -21 -2 -30 0 -10 3 -4 5 12 5 17 0 24 -2 18 -5z m781 -38 c-8 -19
-24 -19 -24 0 0 8 7 15 15 15 9 0 12 -6 9 -15z"/>
<path d="M5230 2150 c0 -5 9 -10 21 -10 11 0 17 5 14 10 -3 6 -13 10 -21 10
-8 0 -14 -4 -14 -10z"/>
<path d="M4455 2450 c3 -5 10 -10 16 -10 5 0 9 5 9 10 0 6 -7 10 -16 10 -8 0
-12 -4 -9 -10z"/>
<path d="M4815 1110 c3 -5 13 -10 21 -10 8 0 12 5 9 10 -3 6 -13 10 -21 10 -8
0 -12 -4 -9 -10z"/>
<path d="M6288 493 c7 -3 16 -2 19 1 4 3 -2 6 -13 5 -11 0 -14 -3 -6 -6z"/>
<path d="M5503 445 c-17 -19 -16 -25 2 -25 8 0 15 9 15 20 0 23 -1 24 -17 5z"/>
<path d="M6240 331 c0 -6 -15 -11 -32 -13 -26 -3 -22 -5 19 -8 46 -5 50 -3 42
13 -10 18 -29 23 -29 8z"/>
<path d="M6268 253 c6 -2 18 -2 25 0 6 3 1 5 -13 5 -14 0 -19 -2 -12 -5z"/>
<path d="M6310 145 c0 -9 6 -12 15 -9 8 4 15 7 15 9 0 2 -7 5 -15 9 -9 3 -15
0 -15 -9z"/>
<path d="M5445 130 c-8 -13 35 -13 55 0 11 7 7 10 -17 10 -17 0 -35 -4 -38
-10z"/>
</g>
</svg>
